<svg id="visual" viewBox="0 0 1440 300" width="1440" height="300" xmlns="http://www.w3.org/2000/svg" xmlns:xlink="http://www.w3.org/1999/xlink" version="1.1">
    <defs>
        <linearGradient id="Gradient1">
            <stop offset="0%" stop-color="#7E2FE0" />
            <stop offset="100%" stop-color="#0793E1" />
    </linearGradient>
    </defs>
    <path d="M0 189L26.7 176.3C53.3 163.7 106.7 138.3 160 130.3C213.3 122.3 266.7 131.7 320 140.2C373.3 148.7 426.7 156.3 480 163.2C533.3 170 586.7 176 640 170.8C693.3 165.7 746.7 149.3 800 137C853.3 124.7 906.7 116.3 960 113.7C1013.3 111 1066.7 114 1120 120.7C1173.3 127.3 1226.7 137.7 1280 141.2C1333.3 144.7 1386.7 141.3 1413.3 139.7L1440 138L1440 0L1413.3 0C1386.7 0 1333.3 0 1280 0C1226.7 0 1173.3 0 1120 0C1066.7 0 1013.3 0 960 0C906.7 0 853.3 0 800 0C746.7 0 693.3 0 640 0C586.7 0 533.3 0 480 0C426.7 0 373.3 0 320 0C266.7 0 213.3 0 160 0C106.7 0 53.3 0 26.7 0L0 0Z" fill="#0793e1"></path><path d="M0 149L26.7 143.3C53.3 137.7 106.7 126.3 160 119.8C213.3 113.3 266.7 111.7 320 118.3C373.3 125 426.7 140 480 138C533.3 136 586.7 117 640 110.3C693.3 103.7 746.7 109.3 800 112.3C853.3 115.3 906.7 115.7 960 112.7C1013.3 109.7 1066.7 103.3 1120 96C1173.3 88.7 1226.7 80.3 1280 88.7C1333.3 97 1386.7 122 1413.3 134.5L1440 147L1440 0L1413.3 0C1386.7 0 1333.3 0 1280 0C1226.7 0 1173.3 0 1120 0C1066.7 0 1013.3 0 960 0C906.7 0 853.3 0 800 0C746.7 0 693.3 0 640 0C586.7 0 533.3 0 480 0C426.7 0 373.3 0 320 0C266.7 0 213.3 0 160 0C106.7 0 53.3 0 26.7 0L0 0Z" fill="#007eee"></path><path d="M0 76L26.7 72.3C53.3 68.7 106.7 61.3 160 55.7C213.3 50 266.7 46 320 54.8C373.3 63.7 426.7 85.3 480 96.3C533.3 107.3 586.7 107.7 640 103.2C693.3 98.7 746.7 89.3 800 85.5C853.3 81.7 906.7 83.3 960 82C1013.3 80.7 1066.7 76.3 1120 80.8C1173.3 85.3 1226.7 98.7 1280 98.8C1333.3 99 1386.7 86 1413.3 79.5L1440 73L1440 0L1413.3 0C1386.7 0 1333.3 0 1280 0C1226.7 0 1173.3 0 1120 0C1066.7 0 1013.3 0 960 0C906.7 0 853.3 0 800 0C746.7 0 693.3 0 640 0C586.7 0 533.3 0 480 0C426.7 0 373.3 0 320 0C266.7 0 213.3 0 160 0C106.7 0 53.3 0 26.7 0L0 0Z" fill="#4061ef"></path><path d="M0 15L26.7 21.5C53.3 28 106.7 41 160 49.8C213.3 58.7 266.7 63.3 320 65C373.3 66.7 426.7 65.3 480 65.2C533.3 65 586.7 66 640 57.3C693.3 48.7 746.7 30.3 800 20.8C853.3 11.3 906.7 10.7 960 17.2C1013.3 23.7 1066.7 37.3 1120 41.2C1173.3 45 1226.7 39 1280 37.7C1333.3 36.3 1386.7 39.7 1413.3 41.3L1440 43L1440 0L1413.3 0C1386.7 0 1333.3 0 1280 0C1226.7 0 1173.3 0 1120 0C1066.7 0 1013.3 0 960 0C906.7 0 853.3 0 800 0C746.7 0 693.3 0 640 0C586.7 0 533.3 0 480 0C426.7 0 373.3 0 320 0C266.7 0 213.3 0 160 0C106.7 0 53.3 0 26.7 0L0 0Z" fill="url(#Gradient1)"></path>
</svg>