<svg id="visual" viewBox="0 0 960 300" width="960" height="300" xmlns="http://www.w3.org/2000/svg" xmlns:xlink="http://www.w3.org/1999/xlink" version="1.1"><path d="M0 78L22.8 84.7C45.7 91.3 91.3 104.7 137 107.5C182.7 110.3 228.3 102.7 274 95.8C319.7 89 365.3 83 411.2 87.8C457 92.7 503 108.3 548.8 109.7C594.7 111 640.3 98 686 94C731.7 90 777.3 95 823 97C868.7 99 914.3 98 937.2 97.5L960 97L960 0L937.2 0C914.3 0 868.7 0 823 0C777.3 0 731.7 0 686 0C640.3 0 594.7 0 548.8 0C503 0 457 0 411.2 0C365.3 0 319.7 0 274 0C228.3 0 182.7 0 137 0C91.3 0 45.7 0 22.8 0L0 0Z" fill="#0793e1"></path><path d="M0 79L22.8 80.2C45.7 81.3 91.3 83.7 137 86.7C182.7 89.7 228.3 93.3 274 91C319.7 88.7 365.3 80.3 411.2 77.7C457 75 503 78 548.8 77.3C594.7 76.7 640.3 72.3 686 71.7C731.7 71 777.3 74 823 74.5C868.7 75 914.3 73 937.2 72L960 71L960 0L937.2 0C914.3 0 868.7 0 823 0C777.3 0 731.7 0 686 0C640.3 0 594.7 0 548.8 0C503 0 457 0 411.2 0C365.3 0 319.7 0 274 0C228.3 0 182.7 0 137 0C91.3 0 45.7 0 22.8 0L0 0Z" fill="#0084eb"></path><path d="M0 73L22.8 72.8C45.7 72.7 91.3 72.3 137 70.5C182.7 68.7 228.3 65.3 274 63.5C319.7 61.7 365.3 61.3 411.2 61.7C457 62 503 63 548.8 65.3C594.7 67.7 640.3 71.3 686 70.2C731.7 69 777.3 63 823 59.2C868.7 55.3 914.3 53.7 937.2 52.8L960 52L960 0L937.2 0C914.3 0 868.7 0 823 0C777.3 0 731.7 0 686 0C640.3 0 594.7 0 548.8 0C503 0 457 0 411.2 0C365.3 0 319.7 0 274 0C228.3 0 182.7 0 137 0C91.3 0 45.7 0 22.8 0L0 0Z" fill="#1371f0"></path><path d="M0 28L22.8 29.7C45.7 31.3 91.3 34.7 137 37.5C182.7 40.3 228.3 42.7 274 45.3C319.7 48 365.3 51 411.2 51C457 51 503 48 548.8 48.5C594.7 49 640.3 53 686 54.7C731.7 56.3 777.3 55.7 823 51.8C868.7 48 914.3 41 937.2 37.5L960 34L960 0L937.2 0C914.3 0 868.7 0 823 0C777.3 0 731.7 0 686 0C640.3 0 594.7 0 548.8 0C503 0 457 0 411.2 0C365.3 0 319.7 0 274 0C228.3 0 182.7 0 137 0C91.3 0 45.7 0 22.8 0L0 0Z" fill="#5158ed"></path><path d="M0 15L22.8 17.5C45.7 20 91.3 25 137 26.2C182.7 27.3 228.3 24.7 274 25.2C319.7 25.7 365.3 29.3 411.2 28.5C457 27.7 503 22.3 548.8 21.8C594.7 21.3 640.3 25.7 686 25.7C731.7 25.7 777.3 21.3 823 22C868.7 22.7 914.3 28.3 937.2 31.2L960 34L960 0L937.2 0C914.3 0 868.7 0 823 0C777.3 0 731.7 0 686 0C640.3 0 594.7 0 548.8 0C503 0 457 0 411.2 0C365.3 0 319.7 0 274 0C228.3 0 182.7 0 137 0C91.3 0 45.7 0 22.8 0L0 0Z" fill="#7e2fe0"></path></svg>